# xmcd
#
# Track frame offsets:
#	150
#	19244
#	39257
#	58300
#	77862
#	95249
#	124538
#	148469
#	173487
#	196056
#	216989
#	237266
#	258562
#	280044
#	300811
#	327400
#
# Disc length: 4609 seconds
#
# Revision: 1
# Processed by: cddbd v1.5.2PL0 Copyright (c) Steve Scherf et al.
# Submitted via: audiograbber 1.83.01
#
DISCID=e511ff10
DTITLE=Santana - Shaman
DYEAR=1900
DGENRE=
TTITLE0=Adouma
TTITLE1=Nothing At All (featuring Musiq)
TTITLE2=The Game Of Love (featuring Michelle Branch)
TTITLE3=You Are My Kind (featuring Seal)
TTITLE4=Amoré (Sexo) (featuring Macy Gray)
TTITLE5=Foo Foo
TTITLE6=Victory Is Won
TTITLE7=America (featuring P.O.D.)
TTITLE8=Sideways (featuring Citizen Cope)
TTITLE9=Why Don't You And I (featuring Chad Kroeger)
TTITLE10=Feels Like Fire (featuring Dido)
TTITLE11=Let Me Love You Tonight
TTITLE12=Aye Aye Aye
TTITLE13=Hoy Es Adios (featuring Alejandro Lerner)
TTITLE14=One Of These Days (featuring Ozomatli)
TTITLE15=Novus (featuring Placido Domingo)
EXTD=
EXTT0=
EXTT1=
EXTT2=
EXTT3=
EXTT4=
EXTT5=
EXTT6=
EXTT7=
EXTT8=
EXTT9=
EXTT10=
EXTT11=
EXTT12=
EXTT13=
EXTT14=
EXTT15=
PLAYORDER=
